HIERARCHY
ROOT Hips
{
	OFFSET 40.497528 24.768526 37.146019
	CHANNELS 6 Xposition Yposition Zposition Zrotation Yrotation Xrotation
	JOINT LHipJoint
	{
		OFFSET 42.134415 48.365273 59.542400
		CHANNELS 3 Zrotation Yrotation Xrotation
		JOINT LeftUpLeg
		{
			OFFSET 68.993095 67.240311 67.699028
			CHANNELS 3 Zrotation Yrotation Xrotation
			JOINT LeftLeg
			{
				OFFSET 69.204643 67.239471 73.790009
				CHANNELS 3 Zrotation Yrotation Xrotation
				JOINT LeftFoot
				{
					OFFSET 82.404488 98.839432 102.573296
					CHANNELS 3 Zrotation Yrotation Xrotation
					JOINT LeftToeBase
					{
						OFFSET 102.757355 100.547325 95.934685
						CHANNELS 3 Zrotation Yrotation Xrotation
						End Site
						{
							OFFSET 0.000000 0.000000 0.000000
						}
					}
				}
			}
		}
	}
	JOINT RHipJoint
	{
		OFFSET 95.204086 91.449112 97.576279
		CHANNELS 3 Zrotation Yrotation Xrotation
		JOINT RightUpLeg
		{
			OFFSET 94.306961 100.223030 96.848724
			CHANNELS 3 Zrotation Yrotation Xrotation
			JOINT RightLeg
			{
				OFFSET 100.383072 92.491409 95.860092
				CHANNELS 3 Zrotation Yrotation Xrotation
				JOINT RightFoot
				{
					OFFSET 91.408249 86.802086 81.455605
					CHANNELS 3 Zrotation Yrotation Xrotation
					JOINT RightToeBase
					{
						OFFSET 82.958229 92.148636 83.927322
						CHANNELS 3 Zrotation Yrotation Xrotation
						End Site
						{
							OFFSET 0.000000 0.000000 0.000000
						}
					}
				}
			}
		}
	}
	JOINT LowerBack
	{
		OFFSET 97.825394 105.844376 124.177094
		CHANNELS 3 Zrotation Yrotation Xrotation
		JOINT Spine
		{
			OFFSET 131.553268 136.450043 143.686737
			CHANNELS 3 Zrotation Yrotation Xrotation
			JOINT Spine1
			{
				OFFSET 146.321198 139.097366 151.808990
				CHANNELS 3 Zrotation Yrotation Xrotation
				JOINT Neck
				{
					OFFSET 156.987137 158.604050 143.196564
					CHANNELS 3 Zrotation Yrotation Xrotation
					JOINT Neck1
					{
						OFFSET 152.096512 163.682434 156.737015
						CHANNELS 3 Zrotation Yrotation Xrotation
						JOINT Head
						{
							OFFSET 142.953812 120.350746 123.382919
							CHANNELS 3 Zrotation Yrotation Xrotation
							End Site
							{
								OFFSET 0.000000 0.000000 0.000000
							}
						}
					}
				}
				JOINT LeftShoulder
				{
					OFFSET 113.452377 106.331940 113.043236
					CHANNELS 3 Zrotation Yrotation Xrotation
					JOINT LeftArm
					{
						OFFSET 124.968971 121.344330 100.638069
						CHANNELS 3 Zrotation Yrotation Xrotation
						JOINT LeftForeArm
						{
							OFFSET 122.334091 138.327332 116.647911
							CHANNELS 3 Zrotation Yrotation Xrotation
							JOINT LeftHand
							{
								OFFSET 134.158936 91.064293 86.992180
								CHANNELS 3 Zrotation Yrotation Xrotation
								JOINT LeftFingerBase
								{
									OFFSET 101.015770 104.223732 112.137253
									CHANNELS 3 Zrotation Yrotation Xrotation
									JOINT LeftHandIndex1
									{
										OFFSET 125.607788 98.398659 68.306847
										CHANNELS 3 Zrotation Yrotation Xrotation
										End Site
										{
											OFFSET 0.000000 0.000000 0.000000
										}
									}
								}
								JOINT LThumb
								{
									OFFSET 84.279442 78.458954 91.120262
									CHANNELS 3 Zrotation Yrotation Xrotation
									End Site
									{
										OFFSET 0.000000 0.000000 0.000000
									}
								}
							}
						}
					}
				}
				JOINT RightShoulder
				{
					OFFSET 95.720139 88.203262 73.154182
					CHANNELS 3 Zrotation Yrotation Xrotation
					JOINT RightArm
					{
						OFFSET 63.607300 75.739967 60.026669
						CHANNELS 3 Zrotation Yrotation Xrotation
						JOINT RightForeArm
						{
							OFFSET 36.070934 34.692860 34.720955
							CHANNELS 3 Zrotation Yrotation Xrotation
							JOINT RightHand
							{
								OFFSET 29.581131 27.713142 33.483341
								CHANNELS 3 Zrotation Yrotation Xrotation
								JOINT RightFingerBase
								{
									OFFSET 33.062599 46.282238 40.466526
									CHANNELS 3 Zrotation Yrotation Xrotation
									JOINT RightHandIndex1
									{
										OFFSET 44.106003 48.593185 50.813660
										CHANNELS 3 Zrotation Yrotation Xrotation
										End Site
										{
											OFFSET 0.000000 0.000000 0.000000
										}
									}
								}
								JOINT RThumb
								{
									OFFSET 51.792110 40.984150 46.362453
									CHANNELS 3 Zrotation Yrotation Xrotation
									End Site
									{
										OFFSET 40.981197 34.610561 45.016140
									}
								}
							}
						}
					}
				}
			}
		}
	}
}
MOTION
Frames: 5
Frame Time: 0.008333
-1.772751 14.116734 -91.298973 -35.648769 -62.542843 -83.966866 -66.013870 -15.733486 -34.618095 -198.304611 -29.410172 -205.592545 -46.815979 -70.226128 -137.487518 -32.454681 -198.398834 -195.699371 -17.331135 -53.614113 -147.106110 -108.147156 -46.920750 -59.011543 -216.967453 -86.444664 -342.440826 -73.446701 -103.671280 -20.934631 -45.445896 -60.955002 6.291759 -0.396416 48.710651 88.187248 -15.342379 -85.546265 79.296745 -0.275314 -29.517321 -102.652161 -2.903609 -37.538982 -110.580109 -147.326340 -129.237122 -79.916077 -40.588436 -87.827316 -44.405083 -47.588814 -42.023026 -97.666451 -78.190163 -30.378012 -30.436077 -201.776184 -26.468742 -474.930664 -381.842773 -133.449539 -12.846237 -8.511716 -5.839211 -179.945908 -25.167667 -136.671524 -421.924835 -7.125000 0.000000 0.000000 105.450623 -202.425049 -317.833282 -17.686911 47.010101 41.937756 215.565292 -7.666102 171.962112 46.842594 54.104370 35.758087 2.576746 1.733030 53.090508 288.831818 231.092712 74.982933 7.125000 0.000000 0.000000 47.352718 -58.771736 89.464912
6.280877 16.946743 48.109318 -4.746719 -7.453286 -30.094265 -11.890588 13.829124 7.367115 -98.850037 78.430145 -31.149147 3.745161 -10.146781 70.641449 9.860656 -11.257914 -19.752193 1.101871 21.978142 108.879501 -24.374161 -6.436607 7.354884 10.433197 125.012901 -0.226337 1.724557 -19.094812 201.544556 1.054773 36.611984 112.435310 6.025903 71.532127 255.159775 25.742130 -54.382584 142.855270 36.629971 54.714695 -13.427673 75.512428 28.036924 33.187325 -17.540768 -22.241867 64.253609 14.722890 28.014702 110.612885 25.449751 12.366026 15.903400 32.930359 64.670647 -1.740972 -36.338146 240.866959 -68.076080 -94.456688 48.406391 171.458008 2.707579 22.197792 229.453674 143.790924 46.190830 -319.794067 -7.125000 0.000000 0.000000 264.016388 29.555277 -35.884052 -1.211588 48.521248 39.825115 199.655670 -24.893576 127.962067 36.822498 42.142384 35.697247 3.393627 4.739084 105.112198 488.420990 320.705078 284.817963 7.125000 0.000000 0.000000 234.400436 34.839886 328.636139
18.442352 18.528568 126.797218 7.521105 30.191349 8.113070 20.015051 33.432762 36.938747 -26.565273 154.244400 77.540115 37.481667 21.605074 195.610214 36.582779 130.726868 139.258316 17.690786 68.181831 272.703125 15.409418 10.362519 27.482103 61.246452 149.251328 17.566914 13.239812 -1.931816 285.985138 23.333075 111.646431 213.087158 16.729429 116.416603 370.219910 45.198925 -54.369389 147.858307 33.494324 32.463432 -48.418137 41.898628 0.702130 -18.102932 -41.200443 -35.992691 45.290073 8.335055 33.990829 130.780319 47.884895 25.333506 41.973690 53.601070 75.641022 1.679784 3.318298 318.240417 133.026184 32.980911 124.156326 225.971085 4.562988 26.405964 262.783264 175.245789 183.143188 -246.693573 -7.125000 0.000000 0.000000 382.014130 138.432785 45.924702 25.980015 62.516476 44.818428 237.492279 2.637429 182.755554 74.292900 64.502434 55.248634 5.870922 6.259059 111.564568 437.050964 292.519836 275.652557 7.125000 0.000000 0.000000 258.805725 29.830292 279.740936
4.651283 13.897381 -24.173227 -36.283657 -55.271503 -73.449020 -47.907604 -1.080941 -13.342358 -165.584320 12.809633 -178.467041 -29.540186 -59.750423 -53.887283 -28.454836 -166.277588 -233.202118 -17.692608 -67.865829 -140.478470 -144.983353 -63.146233 -73.456253 -265.876648 -109.736259 -390.522797 -80.604927 -116.612892 -146.802353 -96.313332 -249.669952 -261.621460 -34.474178 -69.241714 -346.836456 -114.216263 -194.337021 -50.663544 -38.328518 -109.349648 -180.162216 -65.177704 -64.332870 -162.983109 -173.480362 -150.877029 -137.184631 -68.192139 -127.731560 -94.889000 -63.232155 -53.925087 -86.287163 -67.643692 -37.221359 -34.817005 -232.496399 -128.993576 -526.801208 -471.769135 -191.030884 -94.490555 -13.673286 -13.889618 -330.385193 -121.791840 -266.088867 -585.368774 -7.125000 0.000000 0.000000 -369.654907 -478.707214 -802.508423 -58.421593 1.167522 19.223364 51.661186 -274.241028 -407.099762 -185.683136 -123.740562 -110.106171 -14.752337 -16.496883 -231.649841 -637.522583 -206.437485 -772.758423 7.125000 0.000000 0.000000 -856.693848 -544.574158 -803.882935
5.757130 13.140560 -69.173538 -49.816513 -89.598236 -122.834328 -94.266441 -31.741100 -57.261822 -287.203827 -113.952332 -392.030975 -89.032028 -144.367950 -331.747375 -83.378410 -406.206360 -482.991150 -40.083473 -164.493729 -433.873505 -229.517029 -101.616631 -129.797653 -474.674866 -308.390594 -728.057068 -164.724915 -213.342896 -424.792480 -172.002625 -442.375031 -509.875336 -55.450287 -143.057770 -640.500244 -161.523911 -245.930984 -129.005219 -78.628830 -196.638458 -283.791412 -159.379425 -140.813858 -359.143738 -358.591827 -303.806824 -349.172089 -154.730682 -318.124756 -361.570465 -189.676529 -137.654953 -243.217072 -219.744232 -172.218399 -79.030647 -516.324524 -683.049683 -1430.967163 -1111.493286 -585.845642 -469.532715 -32.207161 -59.149681 -1006.511292 -444.911621 -811.166870 -941.568481 -7.125000 0.000000 0.000000 -702.712646 -786.239258 -1170.083618 -75.528069 -0.526343 24.000105 106.520905 -165.966644 -173.571548 -49.938946 -26.518242 -17.121414 -3.955881 -4.282368 -45.532288 -3.909181 82.602112 -162.926651 7.125000 0.000000 0.000000 -152.327377 -207.214615 -54.747677
